<?xml version="1.0" encoding="UTF-8"?>
<svg id="Layer_1" data-name="Layer 1" xmlns="http://www.w3.org/2000/svg" viewBox="0 0 512 512">
  <path d="M373.3,294.33c10.76-5.84,20.66-11.5,30.81-16.66,9.03-4.59,18.03-9.55,27.58-12.75,18.85-6.31,38.98.72,50.18,17.46,11.42,17.07,14.05,35.32,3,53.72-2.95,4.91-7.18,9.55-11.85,12.84-12.05,8.49-24.43,16.59-37.13,24.07-32.49,19.15-65.33,37.71-97.84,56.82-27.07,15.91-55.84,22.91-86.84,16.41-20.19-4.23-40.09-9.88-60.05-15.14-25.36-6.67-50.64-13.63-75.99-20.36-8.7-2.31-9.89-1.86-13.19,6.82-2.06,5.42-5.23,7.76-10.99,7.69-17.39-.21-34.79-.13-52.18-.18-1.31,0-2.62-.11-3.93-.26-11.48-1.31-13.63-3.16-14.36-14.54-.59-9.16-.43-18.37-.41-27.56.08-43.67.18-87.33.39-131,.08-15.91,1.39-17.56,17.32-18.17,17.04-.65,34.11-.42,51.17-.64,6.34-.08,10.4,2.83,13,8.57,3.26,7.18,3.93,7.38,10.77,3.59,16.32-9.04,33.65-14.88,52.36-15.26,27.95-.56,53.15,6.88,73.54,27.19,6.01,5.98,12.98,9.28,22,8.81,15.39-.8,30.83-.79,46.25-.8,9.49,0,19.01.29,28.47,1.02,14.45,1.12,25.27,8.27,32.57,20.83,1.42,2.44,3.28,4.61,5.35,7.47ZM276.67,356.48c0,.08,0,.16,0,.23-9.85,0-19.69.05-29.54-.01-9.85-.06-19.71.09-29.53-.46-7.67-.42-13.22-6.22-13.7-13.12-.45-6.51,4.87-13.3,12.14-14.6,4.48-.8,9.14-.86,13.72-.83,25.93.18,51.86.6,77.79.68,8.19.02,16.41-.49,24.56-1.25,9.4-.88,13.36-5.28,13.97-14.54.78-11.73-3.82-17.44-15.71-17.72-20.01-.48-40.07-1.03-60.05-.17-20.3.88-37.73-3.23-52.96-18.03-23.01-22.35-58.58-24.2-85.8-8-5.62,3.35-10.86,7.38-16.65,10.37-7.08,3.64-9.56,9.06-9.45,16.77.29,20.68.1,41.38.21,62.06.03,4.92.29,9.85.78,14.74.42,4.21,2.4,7.2,6.99,8.38,12.7,3.27,25.28,6.95,37.97,10.27,29.82,7.81,60,14.43,89.41,23.56,28.2,8.75,54.44,5.7,79.81-7.76,17.36-9.21,34.21-19.4,51.14-29.4,21.44-12.66,42.75-25.53,64.05-38.42,6.43-3.89,13.01-7.68,18.9-12.31,12.12-9.53,10.34-24.57-2.87-32.56-8.14-4.92-15.01-2.36-22.14,1.55-17.53,9.62-35.14,19.1-52.48,29.04-3.16,1.81-5.8,5.19-7.68,8.42-8.26,14.23-20.84,22.05-36.78,22.87-18.66.96-37.4.23-56.11.23ZM65.75,272.37c.12-10.15-2.82-14.25-10.33-14.41-9.98-.22-14.78,4.13-15.03,13.62-.22,8.33,3.94,12.74,12.21,12.97,8.17.23,13.06-4.3,13.15-12.18Z"/>
  <path d="M233.55,135.07c2.8-.33,5.78-.14,8.36-1.07,9.64-3.49,19.44-2.35,29.22-1.44,16.1,1.5,25.6,11.83,32.8,25.11,11.15,20.57,11.43,42.82,9.6,65.23-.66,8.05-3.03,15.96-4.75,23.91-1.22,5.65-5.04,8.18-10.65,8.27-12.46.2-24.91.41-37.37.54-5.84.06-10.25-2.45-14.8-6.37-29.51-25.41-63.11-36.44-102-27.59-14.98,3.41-16.78,1.99-16.63-13.15.18-17.52,2.18-34.69,10.14-50.66,7.79-15.62,20.4-24.67,37.75-25.84,8.05-.54,16.24,1.1,24.36,1.79,1.3.11,2.65.83,3.86.61,2.09-.39,5.52-.93,5.8-2.06.54-2.11-.02-5.43-1.47-6.92-3.86-3.96-8.03-7.93-12.8-10.62-11.39-6.41-23.18-12.1-34.83-18.05-1.16-.59-2.77-.62-3.59-1.47-1.24-1.29-2.88-3.22-2.67-4.62.21-1.4,2.58-3.63,3.84-3.52,5.8.5,11.97.66,17.18,2.88,7.46,3.17,14.42,7.71,21.2,12.26,8.05,5.4,11.54,5.49,15.21-3.29,6.93-16.57,20.62-18.54,35.61-18.18,7.55.18,10.29,2.64,10.41,10.21.21,12.89-.26,25.9-12.96,33.97-2.48,1.57-5.31,2.57-7.91,3.95-1.65.87-3.17,1.98-4.75,2.98.62,1.05,1.23,2.11,1.85,3.16Z"/>
  <path d="M383.01,63.42c23.87-.56,42.28,1.62,59.61,9.64,6.52,3.02,12.38,6.68,17.12,12.6,5.87,7.34,3.56,20.53-6.03,25.11-18.76,8.96-38.13,15.72-59.13,16.8-16.14.83-32.34.05-47.76-4.39-11.49-3.3-22.24-9.35-33.09-14.65-2.78-1.36-5-4.25-6.95-6.83-3.34-4.41-2.97-10.11.58-14.49,1.23-1.52,2.49-3.24,4.13-4.18,13.31-7.58,26.02-16.52,42.22-17.28,11.44-.54,22.85-1.81,29.31-2.34Z"/>
  <path d="M305.23,121.36c8.11-.23,14.37,3.09,20.16,6.33,12.37,6.91,25.91,9.77,39.48,10.99,23.57,2.12,47.21,1.22,69.93-6.66,7.39-2.56,14.35-6.35,21.53-9.51,1.71-.75,3.55-1.22,5.25-1.79,9.08,17.61,1.37,37.5-16.87,45.51-37.24,16.36-75.1,15.32-113.44,4.75-6.91-1.9-11.13-6.65-14.3-12.59-3.24-6.06-6.26-12.24-9.39-18.37-2.89-5.64-4.71-11.41-2.36-18.68Z"/>
  <path d="M326.23,182.83c4.92.42,8.59.12,11.87,1.1,23.71,7.1,47.94,7.21,72.24,5.31,13.59-1.07,25.99-6.38,37.89-12.89,3.9-2.13,8.02-3.85,12.79-6.11,3.08,10.45,4.04,19.77,1.96,29.18-1.94,8.8-8.19,14.02-16.22,17.13-14.06,5.46-28.46,9.83-43.26,12.81-2.88.58-5.88.97-8.8.83-14.41-.72-28.83-1.42-43.21-2.64-4.81-.41-9.46-2.51-14.25-3.54-8.15-1.75-11.41-7.16-11.42-14.93-.01-8.41.25-16.82.4-26.26Z"/>
  <path d="M460.13,223.81c3.94,8.88,3.92,16.58,2.55,24.36-.69,3.94-3.98,5.1-7.28,5.49-3.88.46-7.85.2-11.76.47-14.11.97-27.8,2.93-39.84,11.62-5.76,4.16-12.45,7.18-19.02,10-6.05,2.6-11.92,2.6-16.59-3.61-8.25-10.98-19.86-15.54-33.24-16.29-.65-.04-1.31-.07-1.96-.13-12.93-1.18-14.69-4.13-10.15-16.27,1.34-3.58,3.54-5.4,7.24-5.36,2.28.03,4.59.16,6.84.54,11.29,1.93,22.58,3.88,33.85,5.98,21.62,4.03,42.29-.8,62.75-6.87,8.68-2.57,17.02-6.31,26.61-9.93Z"/>
</svg>